<svg width="32" height="32" viewBox="0 0 32 32" fill="none" xmlns="http://www.w3.org/2000/svg">
<path d="M24 16C24 11.5817 20.4183 8 16 8C11.5817 8 8 11.5817 8 16C8 19.993 10.9255 23.3027 14.75 23.9028V18.3125H12.7188V16H14.75V14.2375C14.75 12.2325 15.9444 11.125 17.7717 11.125C18.6467 11.125 19.5625 11.2812 19.5625 11.2812V13.25H18.5538C17.56 13.25 17.25 13.8667 17.25 14.5V16H19.4688L19.1141 18.3125H17.25V23.9028C21.0745 23.3027 24 19.993 24 16Z" fill="white"/>
<rect x="0.5" y="0.5" width="31" height="31" rx="15.5" stroke="white"/>
</svg>
