<svg width="32" height="32" viewBox="0 0 32 32" fill="none" xmlns="http://www.w3.org/2000/svg">
<path fill-rule="evenodd" clip-rule="evenodd" d="M19.5 9H12.5C10.567 9 9 10.567 9 12.5V19.5C9 21.433 10.567 23 12.5 23H19.5C21.433 23 23 21.433 23 19.5V12.5C23 10.567 21.433 9 19.5 9ZM18.8 15.559C18.8864 16.1416 18.7869 16.7366 18.5156 17.2593C18.2444 17.7821 17.8152 18.206 17.2891 18.4708C16.7631 18.7356 16.1669 18.8278 15.5855 18.7342C15.004 18.6406 14.4668 18.3661 14.0504 17.9497C13.634 17.5332 13.3594 16.9961 13.2659 16.4146C13.1723 15.8331 13.2645 15.237 13.5292 14.7109C13.794 14.1848 14.2179 13.7557 14.7407 13.4844C15.2635 13.2132 15.8584 13.1137 16.441 13.2C17.0353 13.2882 17.5854 13.5651 18.0102 13.9899C18.435 14.4146 18.7119 14.9648 18.8 15.559ZM20 13.3333C20.3682 13.3333 20.6667 13.0349 20.6667 12.6667C20.6667 12.2985 20.3682 12 20 12C19.6318 12 19.3333 12.2985 19.3333 12.6667C19.3333 13.0349 19.6318 13.3333 20 13.3333Z" fill="white"/>
<rect x="0.5" y="0.5" width="31" height="31" rx="15.5" stroke="white"/>
</svg>
