<svg width="32" height="32" viewBox="0 0 32 32" fill="none" xmlns="http://www.w3.org/2000/svg">
<g clip-path="url(#clip0)">
<path d="M21.63 21.6355H19.2635V17.922C19.2635 17.0365 19.245 15.8985 18.026 15.8985C16.792 15.8985 16.604 16.859 16.604 17.8565V21.635H14.2345V13.9995H16.5105V15.041H16.541C16.859 14.4395 17.6325 13.807 18.7865 13.807C21.187 13.807 21.6325 15.3875 21.6325 17.4425V21.635L21.63 21.6355ZM11.5575 12.956C11.3766 12.9561 11.1975 12.9205 11.0305 12.8512C10.8634 12.7819 10.7116 12.6804 10.5838 12.5524C10.4561 12.4244 10.3548 12.2724 10.2859 12.1052C10.2169 11.938 10.1816 11.7589 10.182 11.578C10.1823 11.3058 10.2633 11.0398 10.4148 10.8136C10.5663 10.5874 10.7814 10.4112 11.033 10.3073C11.2846 10.2033 11.5614 10.1763 11.8283 10.2297C12.0953 10.2831 12.3404 10.4144 12.5327 10.6071C12.725 10.7997 12.8559 11.0451 12.9088 11.3121C12.9617 11.5792 12.9342 11.8559 12.8298 12.1073C12.7254 12.3587 12.5488 12.5735 12.3224 12.7246C12.0959 12.8757 11.8297 12.9562 11.5575 12.956ZM12.7445 21.6355H10.37V14H12.7445V21.6355ZM22.818 8H9.18C8.5285 8 8 8.5155 8 9.1535V22.847C8 23.485 8.5285 24.0005 9.18 24.0005H22.8155C23.466 24.0005 24 23.485 24 22.847V9.1535C24 8.5155 23.466 8 22.8155 8H22.818Z" fill="white"/>
</g>
<rect x="0.5" y="0.5" width="31" height="31" rx="15.5" stroke="white"/>
<defs>
<clipPath id="clip0">
<rect width="16" height="16" fill="white" transform="translate(8 8)"/>
</clipPath>
</defs>
</svg>
