<svg width="32" height="32" viewBox="0 0 32 32" fill="none" xmlns="http://www.w3.org/2000/svg">
<path d="M16.3709 8.0135C17.2915 8 18.2068 8.008 19.1211 8C19.1765 9.02055 19.5637 10.0601 20.3519 10.7816C21.1385 11.5212 22.2511 11.8597 23.3337 11.9742V14.6589C22.3192 14.6274 21.2999 14.4273 20.3793 14.0133C19.9784 13.8413 19.6048 13.6198 19.2392 13.3933C19.2345 15.3414 19.2477 17.287 19.2261 19.2271C19.1712 20.1591 18.8467 21.0867 18.2749 21.8547C17.3548 23.1333 15.7579 23.9669 14.1177 23.9929C13.1116 24.0474 12.1066 23.7873 11.2493 23.3083C9.82858 22.5143 8.82885 21.0607 8.68324 19.5006C8.6649 19.1702 8.66208 18.8392 8.6748 18.5086C8.80142 17.24 9.46351 16.0264 10.4912 15.2009C11.6561 14.2393 13.2878 13.7813 14.8156 14.0523C14.8299 15.0399 14.7882 16.0264 14.7882 17.014C14.0902 16.8 13.2746 16.86 12.6648 17.2615C12.2186 17.5401 11.8814 17.95 11.7051 18.4281C11.5595 18.7661 11.6012 19.1416 11.6096 19.5006C11.7769 20.5947 12.8869 21.5142 14.0718 21.4147C14.8573 21.4067 15.6101 20.9747 16.0195 20.3422C16.1519 20.1206 16.3002 19.8941 16.3081 19.6336C16.3772 18.4411 16.3498 17.2535 16.3582 16.0609C16.364 13.3733 16.3498 10.6931 16.3714 8.014L16.3709 8.0135Z" fill="white"/>
<rect x="0.5" y="0.5" width="31" height="31" rx="15.5" stroke="white"/>
</svg>
